HIERARCHY
ROOT Hips
{
	OFFSET -0.001795 -0.223333 0.028219
	CHANNELS 6 Xposition Yposition Zposition Zrotation Yrotation Xrotation 
	JOINT LeftUpLeg
	{
		OFFSET 0.069520 -0.091406 -0.006815
		CHANNELS 3 Zrotation Yrotation Xrotation
		JOINT LeftLeg
		{
			OFFSET 0.034277 -0.375199 -0.004496
			CHANNELS 3 Zrotation Yrotation Xrotation
			JOINT LeftFoot
			{
				OFFSET -0.013596 -0.397961 -0.043693
				CHANNELS 3 Zrotation Yrotation Xrotation
				JOINT LeftToe
				{
					OFFSET 0.026358 -0.055791 0.119288
					CHANNELS 3 Zrotation Yrotation Xrotation
					End Site
					{
						OFFSET 0.000000 0.000000 0.000000
					}
				}
			}
		}
	}
	JOINT RightUpLeg
	{
		OFFSET -0.067670 -0.090522 -0.004320
		CHANNELS 3 Zrotation Yrotation Xrotation
		JOINT RightLeg
		{
			OFFSET -0.038290 -0.382569 -0.008850
			CHANNELS 3 Zrotation Yrotation Xrotation
			JOINT RightFoot
			{
				OFFSET 0.015774 -0.398415 -0.042312
				CHANNELS 3 Zrotation Yrotation Xrotation
				JOINT RightToe
				{
					OFFSET -0.025372 -0.048144 0.123348
					CHANNELS 3 Zrotation Yrotation Xrotation
					End Site
					{
						OFFSET 0.000000 0.000000 0.000000
					}
				}
			}
		}
	}
	JOINT Spine
	{
		OFFSET -0.002533 0.108963 -0.026696
		CHANNELS 3 Zrotation Yrotation Xrotation
		JOINT Spine1
		{
			OFFSET 0.005487 0.135180 0.001092
			CHANNELS 3 Zrotation Yrotation Xrotation
			JOINT Spine2
			{
				OFFSET 0.001457 0.052922 0.025425
				CHANNELS 3 Zrotation Yrotation Xrotation
				JOINT Neck
				{
					OFFSET -0.002778 0.213870 -0.042857
					CHANNELS 3 Zrotation Yrotation Xrotation
					JOINT Head
					{
						OFFSET 0.005152 0.064970 0.051349
						CHANNELS 3 Zrotation Yrotation Xrotation
						End Site
						{
							OFFSET 0.000000 0.000000 0.000000
						}
					}
				}
				JOINT LeftShoulder
				{
					OFFSET 0.078845 0.121749 -0.034090
					CHANNELS 3 Zrotation Yrotation Xrotation
					JOINT LeftArm
					{
						OFFSET 0.090977 0.030469 -0.008868
						CHANNELS 3 Zrotation Yrotation Xrotation
						JOINT LeftForeArm
						{
							OFFSET 0.259612 -0.012772 -0.027456
							CHANNELS 3 Zrotation Yrotation Xrotation
							JOINT LeftHand
							{
								OFFSET 0.249234 0.008986 -0.001171
								CHANNELS 3 Zrotation Yrotation Xrotation
								End Site
								{
									OFFSET 0.000000 0.000000 0.000000
								}
							}
						}
					}
				}
				JOINT RightShoulder
				{
					OFFSET -0.081759 0.118833 -0.038615
					CHANNELS 3 Zrotation Yrotation Xrotation
					JOINT RightArm
					{
						OFFSET -0.096012 0.032551 -0.009143
						CHANNELS 3 Zrotation Yrotation Xrotation
						JOINT RightForeArm
						{
							OFFSET -0.253742 -0.013329 -0.021401
							CHANNELS 3 Zrotation Yrotation Xrotation
							JOINT RightHand
							{
								OFFSET -0.255298 0.007772 -0.005559
								CHANNELS 3 Zrotation Yrotation Xrotation
								End Site
								{
									OFFSET 0.000000 0.000000 0.000000
								}
							}
						}
					}
				}
			}
		}
	}
}
MOTION
Frames: 18
Frame Time: 0.050000
0.000000 0.949838 0.000000 -1.034248 3.435621 1.706158 3.794502 0.146855 4.417775 -0.140208 0.271757 -8.389854 -0.582214 3.540396 10.530172 0.000000 0.000000 0.000000 -1.602179 -0.311407 3.820258 -1.901578 -0.119949 -5.809449 0.029127 -3.675988 9.547278 0.000000 0.000000 0.000000 0.887337 0.084924 -2.076164 0.447724 -0.079278 -3.200701 -0.882137 -0.520550 9.577581 2.314185 0.080475 -18.630526 0.000000 0.000000 0.000000 -13.202136 -6.480575 1.683357 -55.034676 -2.032071 -6.120040 -6.472029 -17.756138 1.654470 0.000000 0.000000 0.000000 10.763427 3.341197 0.865654 60.379910 2.287434 -5.156559 -4.295047 15.858311 0.085104 0.000000 0.000000 0.000000 
-0.000609 0.947535 -0.000443 -0.820823 2.971604 1.713480 3.691048 0.182629 4.835791 0.138859 0.298520 -9.453223 -1.105708 2.394723 9.997961 0.000000 0.000000 0.000000 -2.375470 -0.265702 3.818241 -1.216492 -0.165140 -5.880059 0.125744 -3.270324 8.771002 0.000000 0.000000 0.000000 1.092188 0.090723 -2.172707 -0.317468 0.230418 -2.394454 -0.586286 -0.728086 8.905477 1.291160 0.735347 -19.981909 0.000000 0.000000 0.000000 -12.776789 -5.749822 1.439944 -53.993716 -0.263286 -6.714655 -6.798250 -19.550285 1.895811 0.000000 0.000000 0.000000 9.596529 3.062190 0.692665 60.805425 1.604310 -5.481984 -6.511803 16.898501 -0.201150 0.000000 0.000000 0.000000 
-0.001020 0.947373 -0.001173 -0.371393 3.296712 1.745602 3.840941 0.135342 4.192546 -0.257454 0.258080 -7.714566 -2.157427 0.222602 9.108358 0.000000 0.000000 0.000000 -2.712631 -0.277651 4.152834 -1.178862 -0.181888 -6.160426 -0.097563 -3.408987 7.902214 0.000000 0.000000 0.000000 0.469327 0.086547 -2.160966 -0.226179 0.237724 -3.776361 -0.559502 -1.380310 9.828802 1.177146 0.720562 -19.807748 0.000000 0.000000 0.000000 -11.381222 -4.739692 1.138415 -53.529978 -0.560181 -6.616530 -5.390372 -19.292701 1.655999 0.000000 0.000000 0.000000 9.044091 3.782097 0.988406 58.813664 1.462686 -5.486001 -8.442273 15.116241 -0.383731 0.000000 0.000000 0.000000 
-0.001452 0.947527 -0.002020 -0.276495 3.424951 1.622069 3.809291 0.132930 4.117206 0.212978 0.231251 -7.398800 -2.722087 -0.705943 9.219694 0.000000 0.000000 0.000000 -2.834656 -0.303026 4.519651 -0.860546 -0.220379 -6.562334 -0.151169 -3.538109 7.975282 0.000000 0.000000 0.000000 0.467440 0.098750 -2.448184 -0.752041 0.448471 -3.036215 -0.096068 -1.985572 9.489555 0.226767 1.219326 -20.195399 0.000000 0.000000 0.000000 -10.567847 -4.379417 1.098590 -52.125108 0.781284 -6.957379 -5.352948 -20.469837 1.771698 0.000000 0.000000 0.000000 6.983011 4.193419 1.169576 57.613580 1.595203 -5.302426 -10.270414 15.404971 -0.619964 0.000000 0.000000 0.000000 
-0.001955 0.948257 -0.003219 -0.078237 3.644215 1.234800 3.621757 0.162331 4.438031 0.657426 0.198218 -6.961530 -3.341036 -1.921878 8.926448 0.000000 0.000000 0.000000 -2.719889 -0.336032 4.774834 -1.095401 -0.187949 -6.191711 -0.730878 -4.596933 7.491182 0.000000 0.000000 0.000000 0.405438 0.073719 -1.851255 -0.445529 0.342498 -3.916122 -0.985951 -1.501357 9.742237 0.705643 1.027090 -20.005993 0.000000 0.000000 0.000000 -8.957410 -4.414271 1.085428 -50.211746 0.597682 -6.635801 -4.259988 -21.412839 1.623037 0.000000 0.000000 0.000000 5.594798 3.832748 1.145808 53.990519 1.883413 -4.817457 -11.018431 15.955973 -0.714197 0.000000 0.000000 0.000000 
-0.002399 0.948692 -0.004691 0.134936 4.280491 1.347794 3.484160 0.145891 4.130428 1.130875 0.159916 -6.505520 -3.878794 -3.014791 8.554060 0.000000 0.000000 0.000000 -2.832262 -0.323780 4.630338 -1.145653 -0.174885 -6.006027 -1.219383 -5.509580 7.231036 0.000000 0.000000 0.000000 0.220790 0.068920 -1.769283 -0.349088 0.314014 -4.115320 -1.004811 -1.862476 9.838198 1.020076 0.885519 -20.577599 0.000000 0.000000 0.000000 -8.203780 -3.831949 0.878858 -47.620402 -0.081838 -6.021342 -2.676215 -23.250982 1.446201 0.000000 0.000000 0.000000 3.521484 3.153452 0.956409 50.267560 2.422967 -4.271523 -14.507952 17.042453 -1.214701 0.000000 0.000000 0.000000 
-0.002800 0.948906 -0.006336 0.368867 4.838235 1.384188 3.372152 0.138416 3.982884 0.897465 0.173282 -6.602871 -4.191350 -3.435216 8.713321 0.000000 0.000000 0.000000 -2.904050 -0.310519 4.447572 -1.182777 -0.163883 -5.853604 -1.590876 -6.211462 7.047757 0.000000 0.000000 0.000000 0.016826 0.065066 -1.703850 -0.020561 0.170724 -3.928991 -1.487396 -1.877597 9.449555 1.656145 0.584127 -20.714993 0.000000 0.000000 0.000000 -7.159213 -3.196959 0.631535 -45.577231 -1.175369 -5.323401 -1.146891 -25.775233 1.240632 0.000000 0.000000 0.000000 2.637032 2.403543 0.723522 46.325203 3.266689 -3.598363 -19.674612 19.815487 -2.222949 0.000000 0.000000 0.000000 
-0.003169 0.949114 -0.007724 0.784311 5.330829 1.676826 2.854961 0.128347 3.371349 1.518664 0.126491 -6.118770 -4.652641 -4.321366 8.533328 0.000000 0.000000 0.000000 -3.171112 -0.273855 4.134716 -0.861793 -0.169554 -5.575192 -2.352310 -7.724222 6.655815 0.000000 0.000000 0.000000 -0.251617 0.074261 -2.006224 -0.039151 0.198555 -4.301801 -1.367304 -2.119394 9.623410 2.119366 0.334135 -20.893697 0.000000 0.000000 0.000000 -7.311624 -3.518966 0.756002 -42.987659 -1.594144 -4.881620 1.179972 -30.276635 0.843317 0.000000 0.000000 0.000000 1.900691 2.153369 0.664927 42.609950 4.557787 -2.930647 -28.011617 22.585338 -4.069774 0.000000 0.000000 0.000000 
-0.003517 0.948978 -0.008735 0.953877 5.437261 1.797537 2.513726 0.170827 3.766997 1.087290 0.175317 -6.881430 -4.378888 -3.432643 9.213053 0.000000 0.000000 0.000000 -3.345635 -0.244035 3.868500 -0.673124 -0.153566 -4.999112 -2.727791 -8.532759 6.676810 0.000000 0.000000 0.000000 -0.303826 0.089689 -2.474555 0.210061 0.065806 -3.690945 -1.528287 -2.290947 9.253288 2.309540 0.168720 -20.329483 0.000000 0.000000 0.000000 -7.078372 -3.137405 0.618008 -41.183557 -1.714425 -4.601149 3.678110 -38.514179 0.223473 0.000000 0.000000 0.000000 1.034977 1.430011 0.441474 38.803747 7.574589 -1.797226 -39.043579 26.165408 -7.269678 0.000000 0.000000 0.000000 
-0.003858 0.949146 -0.009498 1.254794 4.538532 1.442329 2.101911 0.224594 4.054170 0.743583 0.169472 -6.286113 -3.700739 -2.772542 8.363125 0.000000 0.000000 0.000000 -3.850677 -0.196515 3.658135 -0.362430 -0.146025 -4.345011 -2.862355 -8.616817 5.394455 0.000000 0.000000 0.000000 0.214359 0.103724 -2.682768 -0.368284 0.329280 -4.237483 -1.427919 -1.694963 9.746492 2.234979 0.179643 -19.921583 0.000000 0.000000 0.000000 -6.384950 -3.550677 0.829851 -39.686903 -1.222380 -4.611401 9.116538 -50.723381 -2.274733 0.000000 0.000000 0.000000 0.094497 2.290384 0.790883 34.360456 10.532633 -0.947031 -51.964342 28.730332 -11.450555 0.000000 0.000000 0.000000 
-0.004158 0.949595 -0.010143 1.567283 3.515082 1.405748 1.655755 0.279049 4.315728 0.321069 0.193239 -6.347325 -2.906789 -1.496891 8.260859 0.000000 0.000000 0.000000 -4.299678 -0.165504 3.719514 -0.214570 -0.164324 -4.506223 -2.779785 -8.522804 5.544776 0.000000 0.000000 0.000000 0.744753 0.125997 -3.020931 -0.615069 0.431500 -4.525277 -1.363133 -1.063642 9.239962 1.707125 0.392182 -18.639127 0.000000 0.000000 0.000000 -5.912885 -3.991537 1.021981 -37.127577 -1.534546 -4.175697 12.634458 -61.436894 -5.032988 0.000000 0.000000 0.000000 -1.921361 3.536797 1.283913 28.857301 14.927693 0.016926 -64.647085 30.565863 -16.245055 0.000000 0.000000 0.000000 
-0.004629 0.950482 -0.010791 1.880385 3.037344 1.186226 1.282114 0.341884 4.789389 0.196469 0.206224 -6.534943 -2.921778 -1.432222 8.547572 0.000000 0.000000 0.000000 -4.550839 -0.143323 3.643152 -0.265721 -0.141169 -4.061045 -2.536536 -7.931666 5.214394 0.000000 0.000000 0.000000 1.163581 0.165537 -3.698909 -0.683939 0.450451 -4.345185 -1.510495 -0.216531 8.892401 2.059293 0.165203 -17.585711 0.000000 0.000000 0.000000 -4.018277 -5.629816 1.706942 -35.948497 -2.831178 -3.663205 16.007626 -70.909935 -8.715604 0.000000 0.000000 0.000000 -5.392568 5.571465 1.958320 22.299340 17.694159 0.235443 -75.524148 29.972590 -19.380759 0.000000 0.000000 0.000000 
-0.005293 0.951231 -0.011476 1.909621 3.496575 0.733527 1.080802 0.390016 5.289346 0.826613 0.175042 -6.503537 -2.646930 -1.407557 7.494083 0.000000 0.000000 0.000000 -4.546475 -0.196955 4.276140 0.016062 -0.169503 -4.228122 -2.546287 -7.965544 5.336214 0.000000 0.000000 0.000000 1.506218 0.144474 -3.111661 -0.341865 0.336608 -5.251991 -1.232273 -0.294521 9.097629 2.129512 0.138657 -17.647465 0.000000 0.000000 0.000000 -2.601274 -6.799126 2.192702 -35.449743 -3.860979 -3.364192 15.756255 -78.706407 -9.911553 0.000000 0.000000 0.000000 -9.605881 8.031125 2.584588 15.368593 19.822934 0.030578 -86.538659 26.093313 -20.109853 0.000000 0.000000 0.000000 
-0.006104 0.951570 -0.012031 1.848859 4.079194 0.780668 0.877553 0.370718 4.930301 1.182898 0.147403 -6.238786 -2.838788 -1.533894 7.825182 0.000000 0.000000 0.000000 -4.379453 -0.220202 4.359690 -0.004634 -0.172212 -4.323532 -3.230568 -9.477606 5.466211 0.000000 0.000000 0.000000 2.137752 0.155603 -3.153705 -0.209277 0.277726 -4.911124 -1.412343 -0.411595 8.276001 2.056811 0.265698 -18.165570 0.000000 0.000000 0.000000 -0.503814 -7.950718 2.649954 -36.944125 -4.511858 -3.278039 -5.038545 -84.018610 7.701527 0.000000 0.000000 0.000000 -14.074502 9.329743 2.756551 11.332208 21.812883 -0.129792 -94.938527 20.198688 -16.974770 0.000000 0.000000 0.000000 
-0.007027 0.952085 -0.012272 1.671859 4.960910 0.751500 1.105167 0.329432 4.673566 1.362292 0.133709 -6.124378 -2.966319 -1.684512 7.814484 0.000000 0.000000 0.000000 -3.979557 -0.278635 4.693989 0.064369 -0.179763 -4.371380 -3.286123 -9.558884 5.456998 0.000000 0.000000 0.000000 2.656709 0.132685 -2.651860 -0.498364 0.448604 -5.994964 -1.622821 -0.441035 8.784819 2.760152 -0.143891 -17.745650 0.000000 0.000000 0.000000 -0.582725 -9.345916 3.110276 -38.531446 -3.474040 -3.759313 -40.484130 -86.553283 41.444267 0.000000 0.000000 0.000000 -16.133840 9.659718 2.656291 7.329433 22.699721 -0.486489 -96.915928 10.402935 -6.846215 0.000000 0.000000 0.000000 
-0.007537 0.952656 -0.012074 1.043596 5.198868 0.294999 1.394730 0.275280 4.192768 1.994504 0.063851 -5.286480 -3.182248 -1.935082 8.025267 0.000000 0.000000 0.000000 -3.104193 -0.354344 4.955961 0.121781 -0.171207 -4.048982 -3.334617 -9.705047 5.719683 0.000000 0.000000 0.000000 3.774403 0.101666 -1.955411 -0.787612 0.569068 -5.820060 -1.926174 -0.365347 8.401392 3.684963 -0.728236 -17.180948 0.000000 0.000000 0.000000 -2.355970 -9.393063 3.072860 -39.168614 -2.593052 -4.044712 -45.770662 -83.130116 43.911867 0.000000 0.000000 0.000000 -16.819560 9.324446 2.529520 5.002947 23.532667 -0.709696 -95.879045 -0.020930 4.309738 0.000000 0.000000 0.000000 
-0.007356 0.953291 -0.011582 0.589058 5.817772 0.055155 1.657961 0.240286 3.979391 2.288404 0.010752 -4.526939 -3.544841 -2.455196 8.155973 0.000000 0.000000 0.000000 -2.472552 -0.447905 5.513182 -0.194261 -0.153274 -4.223247 -3.411017 -9.846168 5.712976 0.000000 0.000000 0.000000 4.201874 0.098093 -1.845638 -0.879723 0.601109 -5.246738 -2.022381 -0.124620 7.642666 5.130111 -1.561780 -16.922348 0.000000 0.000000 0.000000 -3.905056 -10.420798 3.362209 -41.724486 -0.604271 -4.890988 -47.285010 -77.584332 41.163609 0.000000 0.000000 0.000000 -15.339199 8.069181 2.272616 3.784844 25.266271 -0.842208 -92.809304 -9.315952 13.552707 0.000000 0.000000 0.000000 
-0.006642 0.954148 -0.011167 0.314375 6.874728 -0.074491 2.362270 0.199847 4.169750 2.224174 0.009167 -4.362680 -4.128766 -3.366547 8.221440 0.000000 0.000000 0.000000 -1.831807 -0.528311 5.824259 -0.591731 -0.110069 -4.006691 -3.705822 -10.470661 5.840102 0.000000 0.000000 0.000000 4.492384 0.057342 -1.293957 -0.862752 0.631900 -5.929087 -2.394799 -0.528192 8.196164 5.695903 -1.742504 -17.952671 0.000000 0.000000 0.000000 -5.887071 -9.789897 3.042324 -43.979912 0.207604 -5.482661 -37.676713 -69.201096 28.500411 0.000000 0.000000 0.000000 -13.991239 7.110669 2.049298 3.714282 25.081091 -0.862603 -90.291100 -16.458162 19.818895 0.000000 0.000000 0.000000 
